<svg xmlns="http://www.w3.org/2000/svg" width="128" height="20" viewBox="0 0 128 20" preserveAspectRatio="none">
  <rect width="128" height="20" fill="#fff"/>
  <rect x="0" y="0" width="4" height="6" fill="#000"/>
  <rect x="6" y="0" width="4" height="10" fill="#000"/>
  <rect x="12" y="0" width="4" height="4" fill="#000"/>
  <rect x="18" y="0" width="4" height="8" fill="#000"/>
  <rect x="24" y="0" width="4" height="12" fill="#000"/>
  <rect x="30" y="0" width="4" height="5" fill="#000"/>
  <rect x="36" y="0" width="4" height="9" fill="#000"/>
  <rect x="42" y="0" width="4" height="3" fill="#000"/>
  <rect x="48" y="0" width="4" height="11" fill="#000"/>
  <rect x="54" y="0" width="4" height="6" fill="#000"/>
  <rect x="60" y="0" width="4" height="8" fill="#000"/>
  <rect x="66" y="0" width="4" height="4" fill="#000"/>
  <rect x="72" y="0" width="4" height="10" fill="#000"/>
  <rect x="78" y="0" width="4" height="7" fill="#000"/>
  <rect x="84" y="0" width="4" height="5" fill="#000"/>
  <rect x="90" y="0" width="4" height="12" fill="#000"/>
  <rect x="96" y="0" width="4" height="6" fill="#000"/>
  <rect x="102" y="0" width="4" height="9" fill="#000"/>
  <rect x="108" y="0" width="4" height="4" fill="#000"/>
  <rect x="114" y="0" width="4" height="8" fill="#000"/>
  <rect x="120" y="0" width="4" height="5" fill="#000"/>
</svg>
